<?xml version="1.0" standalone="no"?><!-- Generator: Gravit.io --><svg xmlns="http://www.w3.org/2000/svg" xmlns:xlink="http://www.w3.org/1999/xlink" style="isolation:isolate" viewBox="0 0 679 273" width="679" height="273"><defs><clipPath id="_clipPath_SEOXYtFlDkG9iJ827x02lraD8ThYkOE8"><rect width="679" height="273"/></clipPath></defs><g clip-path="url(#_clipPath_SEOXYtFlDkG9iJ827x02lraD8ThYkOE8)"><rect x="0.394" y="0.1" width="678.209" height="273" transform="matrix(1,0,0,1,0,0)" fill="none"/><g><path d=" M 300.635 108.661 L 300.635 119.737 L 257.33 119.737 L 257.33 62.064 L 299.836 62.064 L 299.836 73.239 L 269.703 73.239 L 269.703 84.814 L 293.151 84.814 L 293.151 95.889 L 269.703 95.889 L 269.703 108.661 L 300.635 108.661 L 300.635 108.661 Z " fill="rgb(255,255,255)"/><path d=" M 313.107 114.548 C 309.216 110.457 307.32 105.468 307.32 99.581 C 307.32 93.694 309.216 88.705 313.107 84.614 C 316.999 80.523 321.489 78.527 326.777 78.527 C 329.072 78.527 331.267 79.026 333.263 80.024 C 335.258 81.022 336.655 81.92 337.553 82.818 L 338.851 84.315 L 338.851 79.326 L 349.926 79.326 L 349.926 137.099 L 338.651 137.099 L 338.651 114.848 C 338.551 115.047 338.352 115.247 338.152 115.446 C 337.953 115.746 337.454 116.145 336.655 116.843 C 335.857 117.542 335.159 118.14 334.261 118.639 C 333.363 119.138 332.265 119.637 330.868 120.036 C 329.471 120.435 328.074 120.635 326.578 120.635 C 321.489 120.635 316.899 118.539 313.107 114.548 Z  M 321.788 91.599 C 319.892 93.694 318.894 96.388 318.894 99.581 C 318.894 102.874 319.892 105.468 321.788 107.564 C 323.684 109.659 326.079 110.657 328.773 110.657 C 331.467 110.657 333.862 109.659 335.757 107.564 C 337.653 105.468 338.651 102.774 338.651 99.581 C 338.651 96.288 337.653 93.694 335.757 91.599 C 333.862 89.503 331.467 88.505 328.773 88.505 C 326.079 88.505 323.684 89.503 321.788 91.599 Z " fill="rgb(255,255,255)"/><path d=" M 387.743 115.646 C 387.444 116.045 386.945 116.444 386.346 117.043 C 385.748 117.641 384.45 118.34 382.455 119.238 C 380.459 120.136 378.364 120.635 376.169 120.635 C 371.579 120.635 367.787 119.038 364.893 115.945 C 362 112.852 360.503 108.761 360.503 103.572 L 360.503 79.326 L 371.579 79.326 L 371.579 102.475 C 371.579 104.77 372.277 106.566 373.774 108.063 C 375.271 109.559 377.166 110.258 379.362 110.258 C 381.856 110.258 383.852 109.459 385.348 107.763 C 386.845 106.167 387.544 103.772 387.544 100.779 L 387.544 79.326 L 398.619 79.326 L 398.619 119.737 L 387.544 119.737 L 387.544 115.646 L 387.743 115.646 Z " fill="rgb(255,255,255)"/><path d=" M 420.471 72.341 C 419.274 73.439 417.677 74.037 415.682 74.037 C 413.786 74.037 412.289 73.439 411.192 72.341 C 410.094 71.243 409.495 69.747 409.495 67.851 C 409.495 65.955 410.094 64.458 411.192 63.361 C 412.289 62.263 413.786 61.664 415.682 61.664 C 417.677 61.664 419.374 62.263 420.471 63.361 C 421.669 64.458 422.267 65.955 422.267 67.851 C 422.267 69.647 421.669 71.144 420.471 72.341 Z  M 421.469 119.837 L 410.294 119.837 L 410.294 79.326 L 421.469 79.326 L 421.469 119.837 Z " fill="rgb(255,255,255)"/><path d=" M 437.534 67.452 L 447.412 67.452 L 447.412 80.224 L 455.594 80.224 L 455.594 90.102 L 447.412 90.102 L 447.412 106.167 C 447.412 107.464 447.911 108.462 448.809 109.36 C 449.707 110.258 450.904 110.657 452.301 110.657 C 453 110.657 453.698 110.557 454.397 110.457 C 455.095 110.357 455.594 110.158 455.993 109.958 L 456.492 109.759 L 456.492 119.238 C 454.297 120.036 451.802 120.435 449.008 120.435 C 440.527 120.435 436.237 115.746 436.237 106.466 L 436.237 90.102 L 429.252 90.102 L 429.252 80.224 L 432.944 80.224 C 434.241 80.224 435.239 79.725 436.137 78.727 C 437.035 77.729 437.434 76.432 437.434 74.836 L 437.534 67.452 L 437.534 67.452 Z " fill="rgb(255,255,255)"/><path d=" M 486.626 115.646 C 486.326 116.045 485.828 116.444 485.229 117.043 C 484.63 117.641 483.433 118.34 481.437 119.238 C 479.541 120.136 477.446 120.635 475.351 120.635 C 471.359 120.635 468.067 119.537 465.572 117.242 C 463.078 115.047 461.78 112.253 461.78 109.06 C 461.78 105.768 462.878 102.974 464.973 100.779 C 467.069 98.583 470.062 97.186 473.754 96.488 L 486.526 94.193 C 486.526 92.497 485.927 91.1 484.63 90.002 C 483.433 88.905 481.637 88.406 479.442 88.406 C 477.646 88.406 475.949 88.705 474.453 89.404 C 472.956 90.102 471.858 90.8 471.26 91.499 L 470.362 92.497 L 464.175 86.31 C 464.375 86.111 464.574 85.811 464.874 85.412 C 465.173 85.013 465.772 84.414 466.769 83.516 C 467.767 82.618 468.865 81.82 469.962 81.122 C 471.16 80.423 472.656 79.825 474.552 79.226 C 476.448 78.627 478.344 78.328 480.34 78.328 C 485.428 78.328 489.619 79.825 492.812 82.918 C 496.005 86.011 497.602 89.803 497.602 94.393 L 497.602 119.537 L 486.526 119.537 L 486.526 115.646 L 486.626 115.646 L 486.626 115.646 Z  M 484.331 109.16 C 485.828 107.564 486.526 105.368 486.526 102.475 L 486.526 101.178 L 477.446 102.874 C 474.453 103.373 472.856 104.87 472.856 107.464 C 472.856 110.158 474.652 111.555 478.244 111.555 C 480.838 111.555 482.834 110.757 484.331 109.16 Z " fill="rgb(255,255,255)"/><path d=" M 545.496 84.614 C 549.288 88.705 551.284 93.694 551.284 99.581 C 551.284 105.468 549.388 110.457 545.496 114.548 C 541.605 118.639 537.115 120.635 531.926 120.635 C 529.631 120.635 527.436 120.136 525.44 119.238 C 523.445 118.24 522.048 117.342 521.15 116.444 L 519.953 114.947 L 519.953 119.936 L 508.777 119.936 L 508.777 62.064 L 519.953 62.064 L 519.953 84.315 C 520.052 84.115 520.252 83.916 520.451 83.716 C 520.651 83.516 521.15 83.018 521.848 82.319 C 522.547 81.621 523.345 81.022 524.243 80.523 C 525.141 80.024 526.239 79.525 527.636 79.126 C 529.033 78.727 530.43 78.527 531.926 78.527 C 537.115 78.527 541.705 80.623 545.496 84.614 Z  M 536.815 107.564 C 538.711 105.468 539.709 102.774 539.709 99.581 C 539.709 96.288 538.711 93.694 536.815 91.599 C 534.92 89.503 532.525 88.505 529.831 88.505 C 527.037 88.505 524.742 89.503 522.846 91.599 C 520.95 93.694 519.953 96.388 519.953 99.581 C 519.953 102.874 520.95 105.468 522.846 107.564 C 524.742 109.659 527.137 110.657 529.831 110.657 C 532.625 110.757 534.92 109.659 536.815 107.564 Z " fill="rgb(255,255,255)"/><path d=" M 571.04 119.837 L 559.865 119.837 L 559.865 62.064 L 571.04 62.064 L 571.04 119.837 Z " fill="rgb(255,255,255)"/><path d=" M 591.196 103.273 C 591.595 105.468 592.792 107.364 594.688 108.861 C 596.584 110.357 598.979 111.156 601.872 111.156 C 603.968 111.156 605.864 110.757 607.66 109.958 C 609.456 109.16 610.653 108.362 611.451 107.464 L 612.649 106.167 L 618.436 113.55 L 617.738 114.249 C 617.438 114.548 616.64 115.147 615.542 115.945 C 614.445 116.743 613.248 117.442 612.05 118.14 C 610.853 118.739 609.256 119.338 607.261 119.837 C 605.265 120.336 603.269 120.535 601.174 120.535 C 595.287 120.535 590.198 118.44 586.007 114.349 C 581.817 110.258 579.721 105.269 579.721 99.481 C 579.721 93.694 581.817 88.805 585.908 84.614 C 589.999 80.523 594.988 78.428 600.775 78.428 C 606.562 78.428 611.352 80.323 615.143 84.215 C 618.935 88.106 620.931 92.896 620.931 98.683 L 620.531 103.173 L 591.196 103.173 L 591.196 103.273 L 591.196 103.273 Z  M 594.688 90.102 C 592.992 91.499 591.894 93.295 591.196 95.49 L 609.755 95.49 C 609.356 93.295 608.258 91.599 606.662 90.202 C 605.065 88.805 603.07 88.106 600.675 88.106 C 598.28 88.106 596.385 88.705 594.688 90.102 Z " fill="rgb(255,255,255)"/><path d=" M 257.43 197.765 L 257.43 139.992 L 282.175 139.992 C 287.364 139.992 291.754 141.489 295.147 144.582 C 298.539 147.675 300.235 151.168 300.235 155.259 C 300.235 156.755 300.036 158.252 299.637 159.649 C 299.238 161.046 298.639 162.144 297.94 163.141 C 297.242 164.039 296.643 164.838 295.945 165.536 C 295.246 166.235 294.747 166.634 294.348 166.933 L 293.65 167.332 C 293.949 167.432 294.249 167.632 294.648 167.831 C 295.047 168.031 295.845 168.53 296.943 169.328 C 298.04 170.126 299.038 171.024 299.836 171.922 C 300.635 172.82 301.433 174.117 302.131 175.814 C 302.83 177.41 303.129 179.206 303.129 181.002 C 303.129 185.592 301.333 189.583 297.641 192.876 C 293.949 196.169 289.26 197.865 283.572 197.865 L 257.43 197.765 L 257.43 197.765 Z  M 269.802 150.27 L 269.802 162.643 L 281.277 162.643 C 283.273 162.643 284.969 162.044 286.067 160.946 C 287.264 159.849 287.863 158.352 287.863 156.456 C 287.863 154.56 287.264 153.064 286.067 151.966 C 284.869 150.868 283.273 150.27 281.277 150.27 L 269.802 150.27 L 269.802 150.27 Z  M 282.973 187.388 C 285.268 187.388 287.064 186.69 288.561 185.293 C 290.058 183.896 290.756 182.1 290.756 180.004 C 290.756 177.909 290.058 176.113 288.561 174.716 C 287.064 173.319 285.169 172.521 282.973 172.521 L 269.802 172.521 L 269.802 187.388 L 282.973 187.388 L 282.973 187.388 Z " fill="rgb(255,255,255)"/><path d=" M 334.56 193.575 C 334.261 193.974 333.762 194.373 333.163 194.971 C 332.564 195.57 331.367 196.269 329.371 197.167 C 327.476 198.065 325.38 198.564 323.285 198.564 C 319.294 198.564 316.001 197.466 313.506 195.171 C 311.012 192.976 309.715 190.182 309.715 186.989 C 309.715 183.696 310.812 180.902 312.908 178.707 C 315.003 176.512 317.996 175.115 321.688 174.417 L 334.46 172.122 C 334.46 170.425 333.862 169.029 332.564 167.931 C 331.367 166.833 329.571 166.334 327.376 166.334 C 325.58 166.334 323.883 166.634 322.387 167.332 C 320.89 168.031 319.792 168.729 319.194 169.428 L 318.296 170.425 L 312.109 164.239 C 312.309 164.039 312.508 163.74 312.808 163.341 C 313.107 162.942 313.706 162.343 314.704 161.445 C 315.701 160.547 316.799 159.749 317.897 159.05 C 319.094 158.352 320.591 157.753 322.487 157.155 C 324.382 156.556 326.278 156.257 328.274 156.257 C 333.363 156.257 337.553 157.753 340.746 160.846 C 343.939 163.94 345.536 167.731 345.536 172.321 L 345.536 197.466 L 334.46 197.466 L 334.46 193.575 L 334.56 193.575 Z  M 332.365 187.089 C 333.862 185.492 334.56 183.297 334.56 180.404 L 334.56 179.106 L 325.48 180.803 C 322.487 181.302 320.89 182.798 320.89 185.393 C 320.89 188.087 322.686 189.484 326.278 189.484 C 328.773 189.484 330.868 188.685 332.365 187.089 Z " fill="rgb(255,255,255)"/><path d=" M 367.488 162.243 C 367.787 161.844 368.286 161.246 368.885 160.647 C 369.483 160.048 370.78 159.15 372.776 158.053 C 374.772 156.955 376.867 156.456 379.062 156.456 C 383.652 156.456 387.444 158.053 390.337 161.246 C 393.231 164.439 394.728 168.729 394.728 174.217 L 394.728 197.765 L 383.552 197.765 L 383.552 175.514 C 383.552 173.02 382.854 171.024 381.357 169.527 C 379.86 168.031 377.965 167.232 375.67 167.232 C 373.175 167.232 371.18 168.031 369.683 169.727 C 368.186 171.423 367.488 173.718 367.488 176.712 L 367.488 197.765 L 356.412 197.765 L 356.412 157.354 L 367.488 157.354 L 367.488 162.243 L 367.488 162.243 Z " fill="rgb(255,255,255)"/><path d=" M 416.979 187.787 L 416.979 197.666 L 405.803 197.666 L 405.803 139.893 L 416.979 139.893 L 416.979 173.718 L 431.347 157.254 L 444.119 157.254 L 428.953 174.616 L 445.017 197.666 L 432.644 197.666 L 421.868 182 L 416.979 187.787 Z " fill="rgb(255,255,255)"/></g><g><path d=" M 187.284 164.638 C 187.284 177.011 177.306 186.989 164.933 186.989 L 86.605 186.989 L 58.167 215.427 L 164.933 215.427 C 192.971 215.427 215.721 192.677 215.721 164.638 L 215.721 57.873 L 187.284 86.31 L 187.284 164.638 L 187.284 164.638 Z " fill="rgb(255,145,0)"/><path d=" M 86.605 186.989 L 86.605 108.661 C 86.605 96.288 96.583 86.31 108.956 86.31 L 187.284 86.31 L 215.721 57.873 L 108.956 57.873 C 81.017 57.873 58.167 80.623 58.167 108.661 L 58.167 215.427 L 86.605 186.989 Z " fill="rgb(255,203,5)"/></g></g></svg>