<svg xmlns="http://www.w3.org/2000/svg" viewBox="0 0 864 216"><defs><style>.a{fill:#ffc52e;}.b{fill:#fff;}</style></defs><title>StorageMart Logo</title><rect class="a" y="150" width="864" height="66"/><rect width="527.42" height="150"/><rect class="b" x="528.13" width="335.87" height="150"/><path class="b" d="M412.45,61.37V55.9H436s-.34,40.52.08,52.66c.85,25-14.63,32.83-33.51,33.93-11.32.65-22.19-1.32-30.09-10.3-3.24-3.67-4.48-6.29-6.48-14.13h23l1.38,2.16c2.94,4.55,8.05,6.28,14.57,4.68,4.79-1.19,7.27-4.5,7.75-9.27.33-3.25.33-6.54.54-11.06-6.77,7.42-14.3,10.16-23,9.19a30.09,30.09,0,0,1-19.51-10.09c-9.51-10.51-9.13-29.45.84-40.38C382.3,51.49,397.62,50.59,412.45,61.37ZM400.77,96c7.07-.05,12.68-5.36,12.7-12S408,71.93,400.89,71.9s-13.09,5.57-13,12.33S393.62,96.06,400.77,96ZM34.23,105c13.72,10.74,28.62,14.49,45.15,9.84,13.83-3.9,21.54-15,21.27-29.58C100.4,72.11,93.28,63.86,78.76,60c-1.77-.47-3.59-.69-5.36-1.14-2.09-.53-5.18-.52-6.86-1.68a7.73,7.73,0,0,1-3.16-5.38,8.47,8.47,0,0,1,3.27-6.11c1.79-1.26,4.81-1.44,7-1.23,4.82.45,9.44,2.78,13.67,5.93,2.6-5.2,6.12-11.23,8.8-16.59C84.78,25,67.29,22.65,55,27.91A28.05,28.05,0,0,0,37.75,56.7c.93,10.9,7.78,17.86,20.75,21.16,3.55.9,7.14,1.71,10.57,3A7.54,7.54,0,0,1,74.31,89c-.27,4.08-2.71,6.66-6.53,7a23.75,23.75,0,0,1-10.23-.87,53.14,53.14,0,0,1-13.49-7.71ZM334,114.34v-6.75c-6.86,7.69-15.14,10.17-24.37,8.93a27.74,27.74,0,0,1-17.92-9.9C281.5,94.54,281.65,74.8,292,63.41c10.64-11.69,27-13.51,42-1.84V56.12h22.69v58.22Zm.66-28.88a12.92,12.92,0,0,0-12.8-12.68c-6.52.09-12.64,6-12.84,12.36-.21,6.65,5.88,12.48,13,12.42S334.62,92.26,334.66,85.46ZM189,117.45c-8.54-.45-16.59-2.17-23.61-7.25-10-7.27-13.67-17.4-12.19-29.33,1.44-11.58,8.23-19.5,18.81-23.93,11-4.63,22.43-4.56,33.65-.53,13.13,4.72,21.27,16.76,20.67,29.92-.66,14.19-10.33,25.68-25,29.33C197.28,116.65,193.08,116.88,189,117.45Zm13.69-32c.06-7.73-5.28-13.13-13.09-13.24a13,13,0,0,0-13.54,13,13.25,13.25,0,0,0,13.3,13.33C197,98.62,202.6,93.18,202.67,85.47ZM514,89.75H466a11,11,0,0,0,6.59,10.59,14.26,14.26,0,0,0,13.17-1.9A8.51,8.51,0,0,0,488,95.9h24.36a25.54,25.54,0,0,1-10.94,15.23c-12.39,8.34-33.72,8-46-.68C437,97.39,438.56,69.1,458.28,58.11c18.86-10.51,43.64-3.7,52.2,14.34A38.82,38.82,0,0,1,514,89.75ZM489.17,76.88c.1-7.4-7.17-10-11.17-10-7,0-11.51,5.59-10.51,10ZM113,38V55.33h-9.14V73.62h9.34v41h23.79v-41h13.28V55.33H136.8V38ZM281,55.9s-1.39-1.69-8.58-1.37c-8.42.37-10.38,3.61-15.61,5.53v-3.9H233.53v58.28h23.11s-.1-17.16,0-23.64c.21-9.71,6.12-15.36,15.87-15.22,2.61,0,5.2.46,8.32.75C280.87,71.38,281,55.9,281,55.9Z"/><path d="M708.87,113.52v-6.75c-6.87,7.7-13.36,10.37-22.59,9.12a29.12,29.12,0,0,1-18.43-10.09c-10.21-12.08-10.06-31.82.31-43.21,10.63-11.69,25.71-13.51,40.71-1.84V55.3h22.68v58.22Zm.66-28.87A12.91,12.91,0,0,0,696.73,72c-6.52.08-12.64,6-12.85,12.35-.21,6.65,5.89,12.48,13,12.43S709.49,91.45,709.53,84.65Zm88.88-47.08V54.89h-9.13v18.3h9.33v41H822.4v-41h12.29V54.89H822.27V37.57ZM784.63,55.26s-1.39-1.68-8.58-1.36c-8.42.36-10.38,3.61-15.61,5.53v-3.9H737.16v58.28h23.11s-.1-17.16,0-23.65c.21-9.7,6.12-15.35,15.87-15.21,2.61,0,5.2.45,8.32.75C784.5,70.75,784.63,55.26,784.63,55.26Zm-242.33,59h24l6.5-52,20,52.68h12.53l18.29-52.68,7.51,52.05h23.71L640.13,27.1l-25.28,0-16.41,45.6-17-45.34-25.49-.18Z"/></svg>
