<svg id="Layer_1" xmlns="http://www.w3.org/2000/svg" viewBox="0 0 146 50"><style>.st4{fill:#e63888}</style><path d="M25.41 13.088h-5.1a2.744 2.744 0 0 1-2.745-2.744v-5.1A2.744 2.744 0 0 1 20.31 2.5h5.1a2.744 2.744 0 0 1 2.743 2.744v5.1a2.744 2.744 0 0 1-2.744 2.744" fill="#426da9"/><path d="M12.217 24.52H6.48a3.085 3.085 0 0 1-3.088-3.086v-5.739a3.088 3.088 0 0 1 3.088-3.087h5.737a3.088 3.088 0 0 1 3.087 3.087v5.739a3.085 3.085 0 0 1-3.087 3.086" fill="#6d2077"/><path d="M11.67 36.428H8.166a1.887 1.887 0 0 1-1.888-1.887v-3.503c0-1.045.847-1.89 1.888-1.89h3.504c1.042 0 1.887.845 1.887 1.89v3.503a1.886 1.886 0 0 1-1.887 1.887" fill="#af1685"/><path class="st4" d="M21.079 47.5h-4.144a2.228 2.228 0 0 1-2.23-2.23v-4.143c0-1.234.999-2.23 2.23-2.23h4.144c1.231 0 2.23.996 2.23 2.23v4.144c0 1.233-.999 2.229-2.23 2.229M36.262 15.175h-2.87a1.544 1.544 0 0 1-1.544-1.543v-2.867c0-.853.69-1.546 1.543-1.546h2.871c.852 0 1.542.693 1.542 1.546v2.867c0 .85-.69 1.543-1.542 1.543"/><path d="M99.08 17.09a1.65 1.65 0 0 0 1.65-1.653 1.654 1.654 0 1 0-1.65 1.654z" fill="#004691"/><path d="M38.696 34.737c-.256.384-.672.575-1.12.575a1.61 1.61 0 0 1-.767-.191c-.352-.225-.608-.704-.608-1.184 0-.224.064-.448.192-.64l3.838-6.043-3.838-6.043a1.261 1.261 0 0 1-.192-.672c0-.448.224-.927.64-1.152a1.37 1.37 0 0 1 .703-.191c.448 0 .896.191 1.152.576l3.133 4.956 3.166-4.956c.256-.385.704-.576 1.152-.576.255 0 .48.064.703.191.415.225.639.704.639 1.152 0 .224-.064.48-.192.672l-3.837 6.043 3.837 6.044c.128.191.192.415.192.64 0 .479-.256.958-.608 1.183a1.607 1.607 0 0 1-.767.191c-.447 0-.863-.191-1.12-.575l-3.165-4.925-3.133 4.925zm13.68-13.655a8.171 8.171 0 0 1 5.5-2.11 8.243 8.243 0 0 1 8.283 8.282c0 4.542-3.677 8.219-8.282 8.219-2.111 0-4.062-.8-5.5-2.111v7.067c0 .703-.64 1.31-1.375 1.31-.672 0-1.343-.607-1.343-1.31V20.41c0-.703.671-1.311 1.343-1.311.735 0 1.374.608 1.374 1.31v.672zm5.5.64c-3.07 0-5.5 2.43-5.5 5.532 0 3.07 2.43 5.5 5.5 5.5 3.103 0 5.533-2.43 5.533-5.5 0-3.102-2.43-5.531-5.532-5.531zm31.695 4.03v8.281c0 .704-.672 1.31-1.343 1.31-.736 0-1.376-.607-1.376-1.31V20.411c0-.704.64-1.311 1.376-1.311.64 0 1.31.575 1.343 1.247 1.119-.863 2.558-1.343 4.125-1.375.863 0 1.502.671 1.502 1.343 0 .735-.67 1.407-1.502 1.407-2.143.064-4.125.832-4.125 4.03zm9.528-6.652c-.735 0-1.375.607-1.375 1.31v13.623c0 .704.64 1.31 1.375 1.31.672 0 1.343-.607 1.343-1.31V20.411c0-.704-.671-1.311-1.343-1.311zm17.365 1.31c0-.703.638-1.31 1.374-1.31.672 0 1.343.607 1.343 1.31v13.623c0 .704-.671 1.31-1.343 1.31-.736 0-1.374-.607-1.374-1.31v-.672a8.235 8.235 0 0 1-5.502 2.11 8.242 8.242 0 0 1-8.282-8.28c0-4.541 3.678-8.219 8.282-8.219 2.111 0 4.03.8 5.502 2.111v-.672zm-5.502 12.312c3.07 0 5.502-2.43 5.502-5.532a5.46 5.46 0 0 0-5.502-5.5c-3.101 0-5.53 2.43-5.53 5.5 0 3.102 2.429 5.532 5.53 5.532zm22.065-6.811c0-2.27-1.982-4.253-4.253-4.253-2.207 0-4.253.896-4.253 4.093v8.282c0 .704-.672 1.31-1.344 1.31-.736 0-1.374-.607-1.374-1.31V20.411c0-.704.639-1.311 1.374-1.311.64 0 1.312.575 1.344 1.247 1.151-.896 2.622-1.375 4.22-1.375 3.71 0 7.004 2.91 7.004 6.555v8.506c0 .704-.67 1.311-1.343 1.311-.736 0-1.375-.607-1.375-1.31V25.91zm-97.582.832c-.064-4.19-3.805-7.77-8.218-7.77-4.605 0-8.282 3.677-8.282 8.217a8.242 8.242 0 0 0 8.282 8.282c2.206 0 4.254-.864 5.724-2.334.288-.256.48-.64.48-1.024 0-.735-.64-1.374-1.375-1.374-.416 0-.8.255-1.087.544-.928.99-2.303 1.438-3.742 1.438-2.75 0-4.986-1.884-5.468-4.506h12.344c.009 0 .017-.003.026-.003h.037c.023-.002.046-.01.07-.013.047-.007.094-.014.14-.028a1.475 1.475 0 0 0 1.069-1.429zm-8.218-5.052c2.48 0 4.54 1.59 5.243 3.808H21.952c.703-2.217 2.766-3.808 5.275-3.808zm57.325 5.052c-.065-4.19-3.806-7.77-8.219-7.77-4.605 0-8.284 3.677-8.284 8.217a8.244 8.244 0 0 0 8.284 8.282c2.206 0 4.253-.864 5.724-2.334.288-.256.48-.64.48-1.024 0-.735-.64-1.374-1.375-1.374-.416 0-.8.255-1.088.544-.927.99-2.303 1.438-3.74 1.438-2.75 0-4.988-1.884-5.47-4.506h12.323c.009 0 .018-.003.026-.003h.059c.037-.003.073-.014.11-.022.018-.004.037-.005.055-.01a1.47 1.47 0 0 0 1.115-1.438zm-8.219-5.052c2.48 0 4.54 1.59 5.244 3.808h-10.52c.703-2.217 2.766-3.808 5.276-3.808zm62.293 13.662a.222.222 0 0 1-.226-.219v-2.307h-.516a.222.222 0 0 1-.218-.226c0-.13.094-.227.218-.227h1.492c.124 0 .218.098.218.227a.223.223 0 0 1-.218.226h-.524v2.307a.218.218 0 0 1-.226.22zm2.667.004c-.124 0-.196-.09-.223-.176l-.642-1.887v1.84a.218.218 0 0 1-.226.22.223.223 0 0 1-.226-.22V32.7c0-.182.158-.34.34-.34.144 0 .278.103.326.25l.651 1.905.645-1.905a.356.356 0 0 1 .33-.25c.18 0 .34.158.34.34v2.434a.218.218 0 0 1-.226.22.223.223 0 0 1-.227-.22V33.3l-.377 1.115-.26.768c-.05.115-.126.175-.225.175z" fill="#1d4f91"/></svg>