<?xml version="1.0" encoding="UTF-8" standalone="no"?>
<svg
   xmlns:dc="http://purl.org/dc/elements/1.1/"
   xmlns:cc="http://creativecommons.org/ns#"
   xmlns:rdf="http://www.w3.org/1999/02/22-rdf-syntax-ns#"
   xmlns:svg="http://www.w3.org/2000/svg"
   xmlns="http://www.w3.org/2000/svg"
   xmlns:sodipodi="http://sodipodi.sourceforge.net/DTD/sodipodi-0.dtd"
   xmlns:inkscape="http://www.inkscape.org/namespaces/inkscape"
   viewBox="0 0 547.78668 242.50667"
   height="242.50667"
   width="547.78668"
   xml:space="preserve"
   id="svg2"
   version="1.1"
   sodipodi:docname="mls-logo-bw.svg"
   inkscape:version="0.92.1 r15371"><sodipodi:namedview
     pagecolor="#ffffff"
     bordercolor="#666666"
     borderopacity="1"
     objecttolerance="10"
     gridtolerance="10"
     guidetolerance="10"
     inkscape:pageopacity="0"
     inkscape:pageshadow="2"
     inkscape:window-width="1920"
     inkscape:window-height="1017"
     id="namedview13"
     showgrid="false"
     inkscape:zoom="0.73319901"
     inkscape:cx="565.28039"
     inkscape:cy="121.25333"
     inkscape:window-x="-8"
     inkscape:window-y="-8"
     inkscape:window-maximized="1"
     inkscape:current-layer="svg2" /><metadata
     id="metadata8"><rdf:RDF><cc:Work
         rdf:about=""><dc:format>image/svg+xml</dc:format><dc:type
           rdf:resource="http://purl.org/dc/dcmitype/StillImage" /></cc:Work></rdf:RDF></metadata><defs
     id="defs6" /><g
     transform="matrix(1.3333333,0,0,-1.3333333,0,242.50667)"
     id="g10"><g
       transform="scale(0.1)"
       id="g12"><path
         id="path14"
         style="fill:#3B3842;fill-opacity:1;fill-rule:evenodd;stroke:none"
         d="m 3311.28,1745.33 583.21,-328.32 V 501.16 h -1172.9 v 918.02 l 589.69,326.15 z m 349.92,-494.64 c -47.52,30.24 -174.96,66.96 -239.77,71.28 -71.27,6.48 -166.31,6.48 -224.61,-8.64 -84.26,-19.44 -226.82,-43.2 -246.25,-142.56 -25.92,-129.59 127.45,-190.079 213.84,-194.403 90.71,-2.148 177.1,-2.148 239.77,-6.476 62.64,-2.168 116.63,-17.286 116.63,-32.391 12.95,-38.887 -82.09,-54.016 -220.31,-60.488 -97.21,-2.16 -263.53,23.758 -341.28,75.593 V 805.73 c 0,-2.167 69.11,-23.757 114.46,-34.57 45.35,-10.777 82.09,-19.422 149.03,-23.758 64.81,-4.304 123.14,-8.64 190.08,0 66.98,6.504 125.3,21.621 164.18,36.739 84.23,30.234 153.34,136.074 107.99,213.836 -49.69,84.233 -205.19,97.193 -293.76,105.833 -30.23,2.16 -25.93,-4.32 -127.44,-2.15 -101.51,4.31 -116.63,25.91 -131.75,51.82 4.31,28.09 47.52,38.9 118.8,45.37 69.11,6.48 28.07,4.33 107.99,6.48 82.09,0 166.32,-17.28 218.17,-34.56 25.93,-6.47 51.83,-21.59 84.23,-30.23 v 110.15 0" /><path
         id="path16"
         style="fill:#3B3842;fill-opacity:1;fill-rule:evenodd;stroke:none"
         d="m 1952.65,1652.46 -455.77,-261.36 2.17,-745.209 h 896.41 v 743.039 l -442.81,263.53 z m -604.8,-183.61 613.43,349.92 581.04,-352.07 V 503.328 H 1347.85 v 965.522 0" /><path
         id="path18"
         style="fill:#3B3842;fill-opacity:1;fill-rule:evenodd;stroke:none"
         d="M 589.688,1745.33 1172.89,1417.01 V 501.16 H 0 v 918.02 l 589.688,326.15 z M 289.453,1289.57 H 136.082 L 133.93,773.328 H 289.453 V 1045.5 L 498.969,769.023 H 650.172 L 870.484,1047.64 V 773.328 h 159.846 l 2.15,518.412 H 874.805 L 576.723,922.383 289.453,1289.57 v 0" /><path
         id="path20"
         style="fill:#3B3842;fill-opacity:1;fill-rule:evenodd;stroke:none"
         d="m 1697.14,1304.53 h 164.91 V 916.27 H 2310 V 767.969 l -612.25,-1.231 -0.61,537.792 v 0" /><path
         id="path22"
         style="fill:#3B3842;fill-opacity:1;fill-rule:evenodd;stroke:none"
         d="M 3.52344,295.203 H 80.4102 L 113.77,121.805 153.66,295.203 h 73.953 V 6.17188 H 179.766 V 242.461 L 127.555,6.17188 H 94.1953 L 44.1445,238.43 V 6.17188 H 3.52344 V 295.203 Z m 387.98056,0 h 42.781 V 85.2813 c 0,-108.5157 -166.781,-118.6407 -166.781,7.1093 V 295.203 h 52.91 V 105.566 c 0,-62.8629 71.09,-69.9801 71.09,-3.046 v 192.683 z m 73.246,0 h 47.883 V 61.9648 h 83.375 V 6.17188 H 464.75 V 295.203 Z M 625.008,238.43 h -52.211 v 56.773 H 727.262 V 238.43 H 675.051 V 6.17188 H 625.008 V 238.43 Z m 128.355,56.773 h 50.051 V 6.17188 H 753.363 V 295.203 Z m 89.907,0 h 95.027 c 90.633,0 92.803,-179.519 -2.195,-182.527 H 893.309 V 6.17188 H 843.27 V 295.203 Z m 50.039,-56.773 v -73.008 h 30.496 c 38.406,0 45.664,73.008 7.234,73.008 h -37.73 z m 131.991,56.773 h 47.88 V 61.9648 h 83.41 V 6.17188 H 1025.3 V 295.203 Z m 149.41,0 h 147.93 v -49.687 h -97.92 V 188.73 h 79.07 v -56.796 h -79.07 V 66.0234 H 1324.8 V 6.17188 H 1174.71 V 295.203 Z m 337.22,0 h 47.82 V 61.9648 h 83.4 V 6.17188 H 1511.93 V 295.203 Z m 152.26,0 h 50.02 V 6.17188 h -50.02 V 295.203 Z m 192.19,-83.144 c -5.09,20.277 -16.68,30.402 -31.2,33.457 -13.78,3.039 -33.36,-3.055 -33.36,-26.368 0,-27.402 29,-30.418 55.11,-36.492 37.72,-14.238 59.47,-43.613 54.41,-100.4099 -7.27,-62.8711 -47.16,-82.1484437 -83.41,-82.1484437 -23.19,0 -71.07,9.1289037 -84.84,82.1484437 l 44.95,13.1914 c 6.52,-36.5234 33.36,-39.5703 42.78,-39.5703 18.88,0 42.82,16.2109 28.3,42.6172 -21.03,37.5116 -95,10.1286 -104.41,93.2616 -5.1,40.59 9.41,103.457 73.22,106.508 29,0 69.62,-13.176 76.14,-65.918 l -37.69,-20.277 z m 111.67,26.371 h -52.2 v 56.773 h 154.43 V 238.43 H 2018.1 V 6.17188 h -50.05 V 238.43 Z m 128.37,56.773 h 50.01 V 6.17188 h -50.01 V 295.203 Z m 89.9,0 h 50.04 l 71.06,-166.316 v 166.316 h 38.45 V 6.17188 h -40.62 L 2224,198.855 V 6.17188 h -37.68 V 295.203 Z m 273.4,-129.781 h 85.57 V 6.17188 h -23.93 L 2514.1,38.6328 C 2495.25,6.17188 2478.56,0.0976563 2457.54,0.0976563 2402.41,-2.96094 2374.15,66.0234 2371.24,149.172 c -2.16,102.422 47.85,153.152 90.64,153.152 35.54,0 76.16,-27.402 83.41,-100.41 l -47.87,-6.094 c 0,26.368 -16.69,52.735 -35.54,52.735 -33.36,-3.039 -40.59,-56.809 -40.59,-96.336 0,-33.457 5.06,-96.3518 42.78,-96.3518 19.58,0 36.26,19.2695 36.26,52.7458 h -40.61 v 56.809 z m 387.23,46.637 c -5.06,20.277 -16.68,30.402 -31.17,33.457 -13.79,3.039 -33.36,-3.055 -33.36,-26.368 0,-27.402 29,-30.418 55.11,-36.492 37.7,-14.238 59.47,-43.613 54.38,-100.4099 -7.23,-62.8711 -47.12,-82.1484437 -83.39,-82.1484437 -23.19,0 -71.09,9.1289037 -84.83,82.1484437 l 44.96,13.1914 c 6.52,-36.5234 33.34,-39.5703 42.77,-39.5703 18.85,0 42.79,16.2109 28.28,42.6172 -21.02,37.5116 -94.98,10.1286 -104.42,93.2616 -5.06,40.59 9.44,103.457 73.24,106.508 29.01,0 69.63,-13.176 76.16,-65.918 l -37.73,-20.277 z m 75.41,83.144 h 147.95 v -49.687 h -97.9 V 188.73 h 79.05 v -56.796 h -79.05 V 66.0234 h 100.07 V 6.17188 H 2922.36 V 295.203 Z m 173.32,0 h 97.89 c 88.5,0 83.42,-139.949 33.37,-159.207 L 3267.56,6.17188 h -55.11 L 3179.09,121.805 h -33.37 V 6.17188 h -50.04 V 295.203 Z m 47.87,-52.742 v -69.973 h 40.62 c 38.43,0 38.43,69.973 2.18,69.973 h -42.8 z m 273.4,52.742 h 42.8 L 3395.91,6.17188 H 3340.8 L 3279.18,295.203 h 52.21 l 42.78,-209.9217 42.78,209.9217 z m 59.48,0 h 50 V 6.17188 h -50 V 295.203 Z m 211.04,-176.441 47.83,-6.086 C 3728.05,25.4375 3683.11,6.17188 3649.73,6.17188 c -55.1,0 -95.72,55.79292 -92.83,162.24612 0,46.68 18.85,126.785 80.52,139.98 38.43,7.09 92.79,-16.242 97.88,-112.578 l -50.03,-7.09 c 2.2,69.969 -47.85,80.098 -64.53,39.551 -13.79,-32.461 -21.04,-166.3162 31.17,-166.3162 14.52,0 33.36,13.1719 35.56,56.7972 z m 73.21,176.441 h 147.93 v -49.687 h -97.88 V 188.73 h 79.06 v -56.796 h -79.06 V 66.0234 H 3910.8 V 6.17188 h -150.12 v 289.03112 0" /><path
         id="path24"
         style="fill:#3B3842;fill-opacity:1;fill-rule:evenodd;stroke:none"
         d="m 4091.62,327.813 c 2.03,30.078 -23.47,61.718 -61.76,61.718 -32.11,0 -60.19,-25 -62.25,-56.64 -1.52,-32.149 27.06,-67.364 62.25,-65.313 31.65,0 63.79,24.988 61.76,60.235 z m -140.33,5.078 c 0,19.902 18.38,70.418 78.57,71.945 52.07,0 78.58,-43.371 78.58,-75.512 0,-61.746 -55.11,-76.551 -77.01,-76.551 -40.34,0 -80.14,28.067 -80.14,80.118 z m 50.02,36.738 h 45.42 c 31.62,0 31.62,-43.367 -3.58,-45.43 l 27.03,-38.242 h -15.3 l -26.53,38.242 h -13.79 v -38.242 h -13.25 v 83.672 z m 13.25,-10.188 v -25.015 h 25.52 c 19.89,0 25,25.015 1.51,25.015 h -27.03 v 0" /></g></g></svg>