<?xml version="1.0" encoding="UTF-8" standalone="no"?>
<svg
   xmlns:dc="http://purl.org/dc/elements/1.1/"
   xmlns:cc="http://creativecommons.org/ns#"
   xmlns:rdf="http://www.w3.org/1999/02/22-rdf-syntax-ns#"
   xmlns:svg="http://www.w3.org/2000/svg"
   xmlns="http://www.w3.org/2000/svg"
   viewBox="0 0 389.09332 444.69333"
   height="444.69333"
   width="389.09332"
   xml:space="preserve"
   id="svg2"
   version="1.1"><metadata
     id="metadata8"><rdf:RDF><cc:Work
         rdf:about=""><dc:format>image/svg+xml</dc:format><dc:type
           rdf:resource="http://purl.org/dc/dcmitype/StillImage" /></cc:Work></rdf:RDF></metadata><defs
     id="defs6" /><g
     transform="matrix(1.3333333,0,0,-1.3333333,0,444.69333)"
     id="g10"><g
       transform="scale(0.1)"
       id="g12"><path
         id="path14"
         style="fill:#3B3842;fill-opacity:1;fill-rule:nonzero;stroke:none"
         d="M 45.3203,383.91 V 8.30078 H 0 V 424.82 h 125.68 c 27.644,0 49.871,-1.871 66.699,-5.59 16.816,-3.71 32.086,-9.859 45.801,-18.441 18.64,-11.641 33.375,-27.18 44.199,-46.641 10.812,-19.449 16.23,-40.039 16.23,-61.777 0,-32.242 -10.765,-59.98 -32.304,-83.25 C 244.77,185.84 217.816,173.172 185.465,171.07 L 298.609,8.30078 H 243.965 L 105.105,209.121 h 44.364 c 29.57,0 53.621,7.719 72.156,23.168 18.535,15.449 27.805,35.281 27.805,59.5 0,14.691 -2.844,28.039 -8.516,40.051 -5.68,12.019 -14.094,22.5 -25.234,31.48 -9.215,7.43 -20.305,12.719 -33.27,15.871 -12.969,3.149 -36.055,4.719 -69.265,4.719 H 45.3203" /><path
         id="path16"
         style="fill:#3B3842;fill-opacity:1;fill-rule:nonzero;stroke:none"
         d="M 464.902,238.012 H 661.617 V 196.82 H 464.902 V 48.6289 H 661.617 V 8.30078 h -243 V 424.82 h 243 V 383.91 H 464.902 V 238.012" /><path
         id="path18"
         style="fill:#3B3842;fill-opacity:1;fill-rule:nonzero;stroke:none"
         d="M 1032.02,176.512 943.305,385.621 855.875,176.512 Z M 783.879,8.30078 H 735.344 L 916.949,424.82 H 972.23 L 1153.2,8.30078 h -49.18 L 1048.09,139.031 H 839.805 L 783.879,8.30078" /><path
         id="path20"
         style="fill:#3B3842;fill-opacity:1;fill-rule:nonzero;stroke:none"
         d="M 1445.17,8.30078 H 1234.31 V 424.82 h 46.29 V 48.6289 h 164.57 V 8.30078" /><path
         id="path22"
         style="fill:#3B3842;fill-opacity:1;fill-rule:nonzero;stroke:none"
         d="M 1624.97,8.30078 H 1579 V 383.91 h -93.54 v 40.91 h 233.04 v -40.91 h -93.53 V 8.30078" /><path
         id="path24"
         style="fill:#3B3842;fill-opacity:1;fill-rule:nonzero;stroke:none"
         d="m 1813.12,218.559 c 0,-50.731 18.53,-93.258 55.61,-127.5902 37.07,-34.3204 82.81,-51.4883 137.24,-51.4883 53.15,0 98.04,17.3515 134.68,52.0586 36.64,34.7229 54.97,77.4299 54.97,128.1599 0,47.301 -18.87,88.063 -56.57,122.301 -37.73,34.23 -83.15,51.34 -136.29,51.34 -21.65,0 -42.48,-3.289 -62.52,-9.86 -20.04,-6.582 -38.52,-16.261 -55.45,-29.039 -22.29,-16.781 -39.81,-37.293 -52.55,-61.5 -12.75,-24.222 -19.12,-49.019 -19.12,-74.382 z m -48.22,0.57 c 0,28.992 6.27,56.652 18.81,82.961 12.53,26.32 30.69,49.871 54.48,70.66 22.93,20.031 48.15,35.09 75.69,45.199 27.54,10.11 57.37,15.16 89.52,15.16 32.79,0 63.16,-5.109 91.13,-15.3 27.96,-10.207 53.51,-25.418 76.66,-45.629 23.79,-20.789 41.68,-44.059 53.68,-69.801 11.99,-25.738 18,-53.5 18,-83.25 0,-29.559 -5.15,-56.688 -15.43,-81.391 -10.29,-24.699 -25.72,-47.1482 -46.29,-67.3591 C 2157.37,47.1016 2130.47,29.5586 2100.47,17.7383 2070.47,5.91016 2037.9,0 2002.76,0 c -67.29,0 -123.75,21.0313 -169.4,63.082 -45.64,42.047 -68.46,94.059 -68.46,156.047" /><path
         id="path26"
         style="fill:#3B3842;fill-opacity:1;fill-rule:nonzero;stroke:none"
         d="M 2391.8,383.91 V 8.30078 h -45.32 V 424.82 h 125.68 c 27.64,0 49.88,-1.871 66.69,-5.59 16.83,-3.71 32.09,-9.859 45.81,-18.441 18.65,-11.641 33.37,-27.18 44.19,-46.641 10.82,-19.449 16.24,-40.039 16.24,-61.777 0,-32.242 -10.77,-59.98 -32.3,-83.25 -21.55,-23.281 -48.49,-35.949 -80.84,-38.051 L 2645.09,8.30078 h -54.65 L 2451.59,209.121 h 44.35 c 29.58,0 53.62,7.719 72.17,23.168 18.53,15.449 27.8,35.281 27.8,59.5 0,14.691 -2.84,28.039 -8.51,40.051 -5.69,12.019 -14.1,22.5 -25.24,31.48 -9.22,7.43 -20.31,12.719 -33.27,15.871 -12.97,3.149 -36.05,4.719 -69.27,4.719 h -67.82" /><path
         id="path28"
         style="fill:#3B3842;fill-opacity:1;fill-rule:nonzero;stroke:none"
         d="m 2762.4,422.969 h 17.11 c 19.47,0 35.99,6.301 35.99,22.582 0,11.551 -9.44,23.097 -35.99,23.097 -7.67,0 -12.98,-0.519 -17.11,-1.046 z m 0,-72.981 h -23.61 v 131.793 c 12.4,1.571 24.2,3.149 41.9,3.149 22.42,0 37.18,-4.2 46.02,-9.969 8.86,-5.781 13.58,-14.711 13.58,-27.313 0,-17.32 -12.98,-27.828 -28.92,-32.027 v -1.039 c 12.99,-2.113 21.84,-12.613 24.79,-32.043 3.54,-20.469 7.08,-28.348 9.44,-32.551 h -24.79 c -3.53,4.203 -7.08,16.282 -10.02,33.602 -3.55,16.808 -12.98,23.101 -31.87,23.101 h -16.52 z m 24.78,168.543 c -58.42,0 -106.21,-44.633 -106.21,-99.761 0,-56.18 47.79,-100.29 106.8,-100.29 59.01,-0.519 106.21,44.11 106.21,99.77 0,55.648 -47.2,100.281 -106.21,100.281 z m 0.59,18.379 c 72.58,0 130.41,-52.512 130.41,-118.14 0,-66.688 -57.83,-118.661 -131,-118.661 -72.58,0 -131.58,51.973 -131.58,118.661 0,65.628 59,118.14 131.58,118.14 h 0.59" /><path
         id="path30"
         style="fill:#3B3842;fill-opacity:1;fill-rule:nonzero;stroke:none"
         d="M 1406.69,961.441 V 1978.81 L 2424.07,961.441 Z m -305.59,0 H 381.598 V 3023.25 H 1101.1 Z m 305.85,2057.869 h 229.67 c 0.73,0.01 1.45,0.07 2.18,0.08 309.8,2.32 495.14,-221.69 495.14,-495.15 0,-273.46 -197.63,-495.23 -495.14,-495.15 H 1406.95 Z M 11.4219,3335.22 V 593.289 H 2632.39 V 3335.22 H 11.4219" /></g></g></svg>