<?xml version="1.0" encoding="utf-8"?>
<!-- Generator: Adobe Illustrator 18.1.1, SVG Export Plug-In . SVG Version: 6.00 Build 0)  -->
<svg version="1.1" id="Layer_2" xmlns="http://www.w3.org/2000/svg" xmlns:xlink="http://www.w3.org/1999/xlink" x="0px" y="0px"
	 viewBox="206 369.5 200 53" enable-background="new 206 369.5 200 53" xml:space="preserve">
<g>
	<path fill="#0295BE" d="M236.4,405.7c-0.5-0.4-1.1-0.7-1.8-0.9c-0.7-0.2-1.4-0.3-2-0.3c-0.5,0-1,0.1-1.5,0.2
		c-0.5,0.1-1,0.3-1.4,0.5s-0.8,0.5-1.2,0.9s-0.6,0.8-0.8,1.2c0-0.7-0.2-1.2-0.6-1.6c-0.3-0.4-0.8-0.7-1.3-0.9
		c-0.5-0.2-1.1-0.3-1.7-0.3c-0.6,0-1.2,0.1-1.9,0.2l0,2.6c0.4,0,0.8,0,1,0.1c0.3,0.1,0.4,0.2,0.5,0.4c0.1,0.2,0.2,0.4,0.2,0.7
		c0,0.3,0,0.6,0,1v12.1h3.8v-9.7c0-0.7,0.1-1.3,0.4-1.8c0.2-0.5,0.5-0.9,0.9-1.2c0.4-0.3,0.9-0.6,1.4-0.7s1.1-0.3,1.6-0.3
		c1,0,1.9,0.2,2.7,0.6l0,0L236.4,405.7z"/>
	<path fill="#0295BE" d="M253.1,419c-0.3-0.1-0.4-0.3-0.5-0.5c-0.1-0.2-0.2-0.5-0.2-0.8c0-0.3,0-0.6,0-1v-10.6
		c-1.1-0.5-2.2-0.9-3.4-1.1c-1.1-0.3-2.3-0.4-3.5-0.4c-1.4,0-2.6,0.2-3.8,0.6c-1.1,0.4-2.1,1-3,1.8c-0.9,0.8-1.5,1.7-2,2.9
		c-0.5,1.1-0.8,2.4-0.8,3.8c0,1.2,0.1,2.3,0.5,3.3c0.3,1,0.8,1.9,1.4,2.7c0.6,0.8,1.4,1.4,2.4,1.8c1,0.4,2.1,0.6,3.3,0.6
		c1.2,0,2.4-0.3,3.5-1c1.1-0.6,1.9-1.5,2.3-2.7c0,0.9,0.1,1.6,0.4,2.1s0.6,0.9,1.1,1.1c0.5,0.3,1,0.4,1.6,0.4c0.6,0,1.2,0,1.8-0.2
		V419C253.7,419.1,253.3,419.1,253.1,419z M248.7,413.2c0,1.6-0.4,2.8-1.2,3.8c-0.7,1-1.8,1.5-3.2,1.5c-1.6,0-2.7-0.5-3.5-1.4
		s-1.1-2.1-1.1-3.7c0-0.9,0.2-1.7,0.5-2.5c0.3-0.7,0.6-1.4,1.1-1.9s1-0.9,1.7-1.2c0.6-0.3,1.4-0.4,2.2-0.4c0.5,0,1.1,0,1.7,0.1
		c0.6,0.1,1.2,0.3,1.8,0.5L248.7,413.2L248.7,413.2z"/>
	<path fill="#0295BE" d="M271.2,406.6c-0.5-0.6-1.2-1.1-2.1-1.5c-0.8-0.4-1.8-0.6-3-0.6c-0.6,0-1.1,0-1.7,0.1s-1.1,0.3-1.6,0.5
		c-0.5,0.2-1,0.5-1.4,0.9c-0.4,0.4-0.8,0.8-1,1.4c0-0.8-0.2-1.4-0.5-1.8c-0.3-0.4-0.7-0.7-1.2-0.9c-0.5-0.1-1.1-0.2-1.7-0.2
		c-0.6,0-1.3,0.1-1.9,0.2v2.6c0.4,0,0.8,0,1,0.1c0.3,0.1,0.4,0.2,0.5,0.4c0.1,0.2,0.2,0.4,0.2,0.7c0,0.3,0,0.7,0,1.2v11.9h3.8v-9.5
		c0-0.7,0.1-1.3,0.3-1.8c0.2-0.6,0.5-1,0.9-1.4c0.4-0.4,0.8-0.7,1.3-0.9c0.5-0.2,1.1-0.3,1.7-0.3c1.1,0,2.1,0.4,2.8,1.1
		c0.8,0.7,1.1,1.8,1.1,3.1v9.8h3.8v-9.8c0-1-0.1-2-0.4-2.9C272.2,408,271.8,407.3,271.2,406.6z"/>
	<path fill="#0295BE" d="M288.2,412.9c-0.6-0.4-1.4-0.6-2.2-0.8c-0.8-0.2-1.7-0.3-2.6-0.4c-1.3-0.2-2.3-0.4-3-0.6
		c-0.7-0.3-1-0.7-1-1.4c0-0.4,0.1-0.7,0.3-1s0.4-0.5,0.8-0.7c0.3-0.2,0.7-0.4,1.1-0.5s0.9-0.2,1.3-0.2s0.9,0,1.3,0.1
		c0.5,0.1,0.9,0.2,1.2,0.4c0.4,0.2,0.6,0.4,0.9,0.7c0.2,0.3,0.4,0.6,0.4,1h3.3c0-0.8-0.1-1.6-0.5-2.2c-0.4-0.6-0.9-1.1-1.5-1.6
		c-0.7-0.4-1.4-0.8-2.3-1s-1.8-0.3-2.8-0.3c-0.9,0-1.8,0.1-2.7,0.3s-1.6,0.5-2.3,1c-0.7,0.4-1.2,1-1.6,1.6s-0.6,1.4-0.6,2.3
		c0,1,0.3,1.7,0.7,2.3c0.5,0.6,1,1,1.7,1.3c0.7,0.3,1.5,0.5,2.4,0.7c0.9,0.1,1.7,0.3,2.6,0.4c1.1,0.1,2,0.4,2.7,0.7
		c0.7,0.3,1,0.8,1,1.6c0,0.5-0.1,0.9-0.4,1.3c-0.3,0.3-0.6,0.6-0.9,0.8c-0.4,0.2-0.8,0.3-1.3,0.4c-0.5,0.1-0.9,0.1-1.4,0.1
		s-0.9-0.1-1.4-0.1c-0.4-0.1-0.8-0.3-1.2-0.5c-0.4-0.2-0.6-0.5-0.9-0.8c-0.2-0.3-0.4-0.7-0.4-1.1h-3.7c0.1,1,0.3,1.9,0.8,2.6
		c0.5,0.7,1,1.2,1.8,1.6c0.7,0.4,1.5,0.7,2.4,0.9c0.9,0.2,1.8,0.3,2.7,0.3s1.8-0.1,2.7-0.3s1.7-0.5,2.3-1s1.2-1,1.6-1.6
		c0.4-0.7,0.6-1.5,0.6-2.4c0-1-0.2-1.8-0.6-2.4C289.3,413.7,288.8,413.3,288.2,412.9z"/>
	<path fill="#0295BE" d="M330.6,406.6c-0.5-0.6-1.2-1.1-2.1-1.5c-0.8-0.4-1.8-0.6-3-0.6c-0.6,0-1.1,0-1.7,0.1
		c-0.6,0.1-1.1,0.3-1.6,0.5c-0.5,0.2-1,0.5-1.4,0.9c-0.4,0.4-0.8,0.8-1,1.4c0-0.8-0.2-1.4-0.5-1.8c-0.3-0.4-0.7-0.7-1.2-0.9
		c-0.5-0.1-1.1-0.2-1.7-0.2c-0.6,0-1.3,0.1-1.8,0.2v2.6c0.4,0,0.8,0,1,0.1c0.3,0.1,0.4,0.2,0.5,0.4c0.1,0.2,0.2,0.4,0.2,0.7
		c0,0.3,0,0.7,0,1.2v11.9h3.8v-9.5c0-0.7,0.1-1.3,0.3-1.8c0.2-0.6,0.5-1,0.9-1.4c0.4-0.4,0.8-0.7,1.3-0.9c0.5-0.2,1.1-0.3,1.7-0.3
		c1.1,0,2.1,0.4,2.8,1.1c0.8,0.7,1.1,1.8,1.1,3.1v9.8h3.8v-9.8c0-1-0.1-2-0.4-2.9C331.6,408,331.2,407.3,330.6,406.6z"/>
	<path fill="#0295BE" d="M337.3,397.5c-0.6,0-1.1,0.2-1.6,0.6c-0.5,0.4-0.7,0.9-0.7,1.7c0,0.8,0.3,1.3,0.7,1.7
		c0.5,0.4,1,0.6,1.6,0.5c0.6,0,1.1-0.2,1.5-0.6c0.5-0.4,0.7-0.9,0.7-1.7c0-0.8-0.2-1.3-0.7-1.7C338.4,397.6,337.9,397.5,337.3,397.5
		z"/>
	<rect x="335.4" y="404.9" fill="#0295BE" width="3.8" height="16.8"/>
	<path fill="#0295BE" d="M356.9,406.7c-0.8-0.7-1.8-1.2-2.9-1.6c-1.1-0.4-2.2-0.5-3.4-0.5c-1.1,0-2.2,0.2-3.2,0.5
		c-1,0.4-2,0.9-2.8,1.6c-0.8,0.7-1.5,1.6-2,2.7c-0.5,1.1-0.8,2.3-0.8,3.8c0,1.5,0.3,2.8,0.8,3.8c0.5,1.1,1.2,2,2,2.8
		c0.8,0.7,1.8,1.3,2.8,1.6c1.1,0.4,2.1,0.5,3.3,0.5c1.1,0,2.2-0.2,3.3-0.5s2-0.9,2.8-1.6c0.8-0.7,1.5-1.6,2-2.8
		c0.5-1.1,0.8-2.4,0.8-3.8c0-1.5-0.3-2.7-0.8-3.8C358.4,408.3,357.7,407.4,356.9,406.7z M355.4,415.6c-0.3,0.7-0.7,1.2-1.1,1.7
		s-1,0.8-1.6,1c-0.6,0.2-1.2,0.4-1.8,0.4c-0.6,0-1.3-0.1-1.9-0.3c-0.6-0.2-1.2-0.6-1.6-1c-0.5-0.5-0.9-1-1.2-1.7
		c-0.3-0.7-0.4-1.5-0.4-2.4c0-0.9,0.1-1.6,0.4-2.3c0.3-0.7,0.6-1.2,1.1-1.6c0.5-0.4,1-0.8,1.6-1c0.6-0.2,1.2-0.3,1.8-0.4
		c0.6,0,1.3,0.1,1.9,0.3s1.2,0.5,1.7,1c0.5,0.4,0.9,1,1.2,1.7c0.3,0.7,0.5,1.5,0.5,2.4C355.9,414.1,355.7,414.9,355.4,415.6z"/>
	<path fill="#0295BE" d="M206,400.9v-3.6h18.1v3.6H217v20.8h-4v-20.8H206z"/>
	<path fill="#0295BE" d="M293.2,413.5v-16.2h4v16.1c0,3.2,2.4,5,5.5,5c3.1,0,5.4-1.8,5.4-5v-16.1h4v16.2c0,5.4-4.3,8.5-9.4,8.5
		C297.5,422,293.2,418.9,293.2,413.5z"/>
	<path fill="#0295BE" d="M378.5,417.7v-2.7l0,0v-3.3c0-1-0.1-2-0.4-2.9c-0.3-0.9-0.7-1.6-1.2-2.3c-0.5-0.6-1.2-1.1-2.1-1.5
		c-0.8-0.4-1.8-0.6-3-0.6c-0.6,0-1.1,0-1.7,0.1c-0.6,0.1-1.1,0.3-1.6,0.5s-1,0.5-1.4,0.9c-0.4,0.4-0.8,0.8-1,1.4
		c0-0.8-0.2-1.4-0.5-1.8c-0.3-0.4-0.7-0.7-1.2-0.9c-0.5-0.1-1.1-0.2-1.7-0.2c-0.6,0-1.3,0.1-1.8,0.2v2.6c0.4,0,0.8,0,1,0.1
		c0.3,0.1,0.4,0.2,0.5,0.4c0.1,0.2,0.2,0.4,0.2,0.7c0,0.3,0,0.7,0,1.2v11.9h3.8v-9.5c0-0.7,0.1-1.3,0.3-1.8c0.2-0.6,0.5-1,0.9-1.4
		c0.4-0.4,0.8-0.7,1.3-0.9c0.5-0.2,1.1-0.3,1.7-0.3c1.1,0,2.1,0.4,2.8,1.1c0.8,0.7,1.1,1.8,1.1,3.1v5.7l0,0v0.4
		c0,4.1,2.5,4.5,5.8,3.9v-2.4C378.8,419.5,378.5,419,378.5,417.7z"/>
	<g>
		<g>
			<path fill="#0295BE" d="M388.4,369.9c-6.5,0-12.2,3.5-15.2,8.8c-1.1,2.1-1.3,3.9-0.4,5.4c1,1.8,3.3,2,4.5,2h2.2l-0.8,2.5
				c-0.5,1.5-0.3,3.2,0.5,4.3c0.8,1.1,2,1.7,3.5,1.7c1,0,2.1-0.2,3.1-0.6c-0.3-0.4-0.5-0.8-0.7-1.3c-0.1-0.4-0.3-0.8-0.3-1.3
				c-0.6,0.3-1.3,0.4-2,0.4c-0.4,0-1-0.1-1.3-0.6c-0.3-0.4-0.4-1-0.2-1.7l1.1-3.4h3.5l0.9-2.9h-3.4l1.5-4.7h-3l-1.5,4.7h-3.2
				c-1,0-1.6-0.3-1.9-0.8c-0.3-0.6,0-1.8,0.8-3.2l0-0.1c2.7-3.9,7.1-6.5,12.2-6.5c8.1,0,14.7,6.6,14.7,14.7
				c0,8.1-6.6,14.7-14.7,14.7c-7.2,0-13.2-5.2-14.5-12l-2.8,0.6c1.6,8.1,8.7,14.3,17.3,14.3c9.7,0,17.6-7.9,17.6-17.6
				C406,377.8,398.1,369.9,388.4,369.9z"/>
		</g>
		<g>
			<path fill="#0295BE" d="M399.6,392.3c-0.7,0-1.6-0.1-2.2-0.5c-0.2-0.2-0.5-0.4-0.6-0.9v0c0-0.2,0-0.5,0.1-0.8l2.2-6.7h0h-3l0,0
				l-1.9,5.8c0,0,0,0,0,0c-0.5,1.5-2.1,2.7-3.5,2.7c-0.4,0-0.9-0.1-1.1-0.5c-0.2-0.3-0.4-0.7-0.1-1.4l2.2-6.7h-3l-1.9,5.8
				c-0.5,1.4-0.3,2.9,0.5,4c0.8,1,1.9,1.6,3.4,1.6c1.4,0,2.9-0.6,4.1-1.6c0.4,0.6,0.9,1,1.6,1.3c1,0.3,1.6,0.3,2.3,0.3
				c0.3,0,0.7-0.1,0.8-0.1c0.1-0.1,0.1-0.2,0.2-0.3c0.1-0.2,0.2-0.4,0.3-0.6c0.1-0.2,0.2-0.4,0.3-0.6c0.1-0.2,0.2-0.4,0.3-0.6
				c0.1-0.1,0.1-0.3,0.2-0.4C400.5,392.3,400.1,392.3,399.6,392.3z"/>
		</g>
	</g>
	<path fill="#0295BE" d="M382.4,419.7c0-3,4.5-3,4.5,0C386.9,422.7,382.4,422.7,382.4,419.7z M386.5,419.7c0-2.6-3.7-2.6-3.7,0
		C382.8,422.3,386.5,422.3,386.5,419.7z M385.6,420.7L385.6,420.7l-0.4,0.1l-0.6-0.8h-0.5v0.8h-0.3v-2.2h0.9c0.4,0,0.8,0.3,0.8,0.7
		c0,0.3-0.2,0.6-0.5,0.6L385.6,420.7z M384.2,419.7h0.5c0.3,0,0.5-0.2,0.5-0.4c0-0.3-0.2-0.4-0.5-0.4h-0.5V419.7z"/>
</g>
</svg>
